<svg width="272" height="56" viewBox="0 0 272 56" fill="none" xmlns="http://www.w3.org/2000/svg">
<path d="M126.476 0.641077L117.373 14.6593L108.27 0.641077H100.791V30.558H108.697V14.6166L115.108 24.4892H119.638L126.049 14.6593V30.558H133.956V0.641077H126.476Z" fill="black"/>
<path d="M144.948 30.558L146.658 25.8568H159.052L160.761 30.558H168.882L157.129 0.641077H148.581L136.828 30.558H144.948ZM152.085 10.8128C152.342 10.0863 152.598 9.35973 152.855 7.77841C153.111 9.35973 153.368 10.0863 153.624 10.8128L156.701 19.446H149.008L152.085 10.8128Z" fill="black"/>
<path d="M179.65 30.558V20.8137H183.069L190.206 30.558H199.139L190.89 19.7025C194.181 18.3776 196.617 15.685 196.617 10.7274C196.617 2.82074 190.42 0.641077 184.351 0.641077H171.743V30.558H179.65ZM179.65 7.47924H184.693C186.958 7.47924 188.497 8.63318 188.497 10.9411C188.497 13.2489 186.958 14.4029 184.693 14.4029H179.65V7.47924Z" fill="black"/>
<path d="M200.174 15.5996C200.174 26.4551 208.251 31.1991 216.756 31.1991C220.132 31.1991 223.594 30.4726 226.671 29.1904V14.1037H219.192V24.19C218.679 24.3182 217.996 24.4037 217.141 24.4037C213.722 24.4037 208.294 22.9933 208.294 15.5996C208.294 9.44521 212.867 6.96638 217.696 6.96638C220.688 6.96638 223.722 7.82115 225.945 9.35973V1.8805C223.124 0.683815 219.876 0 216.671 0C208.337 0 200.174 4.44481 200.174 15.5996Z" fill="black"/>
<path d="M231.51 0.641077V30.558H239.417V0.641077H231.51Z" fill="black"/>
<path d="M252.981 30.558V18.3348C252.981 16.7108 252.939 14.8303 252.81 13.4199L264.521 30.558H272V0.641077H264.093V12.8643C264.093 14.5311 264.136 16.4116 264.264 17.822L252.554 0.641077H245.075V30.558H252.981Z" fill="black"/>
<path d="M100.684 39.8947V55.5436H105.826C111.348 55.5436 114.097 52.235 114.097 47.7192C114.097 43.2033 111.348 39.8947 105.826 39.8947H100.684ZM112.197 47.7192C112.197 51.4749 110.051 53.7552 105.826 53.7552H102.562V41.6832H105.826C110.051 41.6832 112.197 43.9634 112.197 47.7192Z" fill="#E25725"/>
<path d="M117.189 39.8947V55.5436H119.067V39.8947H117.189Z" fill="#E25725"/>
<path d="M122.142 47.7192C122.142 53.621 126.345 55.8119 130.637 55.8119C132.336 55.8119 134.08 55.4318 135.533 54.7612V47.2273H133.655V53.4422C132.873 53.8222 131.822 54.0234 130.771 54.0234C127.485 54.0234 124.042 52.4362 124.042 47.7192C124.042 43.2481 127.441 41.4149 130.727 41.4149C132.359 41.4149 133.946 41.795 135.153 42.555V40.6772C133.767 39.9842 132.113 39.6265 130.458 39.6265C126.3 39.6265 122.142 42.3315 122.142 47.7192Z" fill="#E25725"/>
<path d="M138.933 39.8947V55.5436H140.811V39.8947H138.933Z" fill="#E25725"/>
<path d="M143.171 39.8947V41.6832H148.671V55.5436H150.548V41.6832H156.048V39.8947H143.171Z" fill="#E25725"/>
<path d="M156.751 55.5436L158.36 51.7655H166.788L168.398 55.5436H170.41L163.614 39.8947H161.535L154.716 55.5436H156.751ZM162.317 42.4209C162.407 42.2197 162.474 42.0409 162.563 41.8173C162.653 42.0409 162.72 42.2197 162.809 42.4209L166.051 50.0218H159.098L162.317 42.4209Z" fill="#E25725"/>
<path d="M172.641 39.8947V55.5436H183.193V53.7552H174.519V39.8947H172.641Z" fill="#E25725"/>
<path d="M189.604 43.7622C189.604 49.2617 198.926 47.4956 198.926 51.6984C198.926 53.4645 197.071 54.0234 194.902 54.0234C193.114 54.0234 191.325 53.5987 189.671 52.5927V54.4705C191.191 55.32 193.002 55.8119 195.036 55.8119C198.032 55.8342 200.826 54.6717 200.826 51.5643C200.826 45.9531 191.504 47.6521 191.504 43.6952C191.504 42.0185 193.047 41.4149 195.103 41.4149C196.713 41.3926 198.457 41.8397 199.709 42.6445V40.7666C198.457 40.0512 196.691 39.6265 194.969 39.6265C192.13 39.6265 189.604 40.9678 189.604 43.7622Z" fill="#E25725"/>
<path d="M201.723 39.8947V41.6832H207.223V55.5436H209.101V41.6832H214.6V39.8947H201.723Z" fill="#E25725"/>
<path d="M227.98 39.8947V49.7312C227.98 52.9056 226.013 54.0234 223.33 54.0234C220.625 54.0234 218.658 52.9056 218.658 49.7312V39.8947H216.78V49.8206C216.78 54.2917 219.843 55.8119 223.33 55.8119C226.795 55.8119 229.858 54.2917 229.858 49.8206V39.8947H227.98Z" fill="#E25725"/>
<path d="M233.791 39.8947V55.5436H238.933C244.455 55.5436 247.204 52.235 247.204 47.7192C247.204 43.2033 244.455 39.8947 238.933 39.8947H233.791ZM245.304 47.7192C245.304 51.4749 243.158 53.7552 238.933 53.7552H235.669V41.6832H238.933C243.158 41.6832 245.304 43.9634 245.304 47.7192Z" fill="#E25725"/>
<path d="M250.296 39.8947V55.5436H252.174V39.8947H250.296Z" fill="#E25725"/>
<path d="M255.227 47.7192C255.227 51.7655 257.932 55.8119 263.409 55.8119C268.886 55.8119 271.591 51.7655 271.591 47.7192C271.591 43.6728 268.886 39.6265 263.409 39.6265C257.932 39.6265 255.227 43.6728 255.227 47.7192ZM269.691 47.7192C269.691 50.9384 267.657 54.0234 263.409 54.0234C259.162 54.0234 257.127 50.9384 257.127 47.7192C257.127 44.5 259.162 41.4149 263.409 41.4149C267.657 41.4149 269.691 44.5 269.691 47.7192Z" fill="#E25725"/>
<g clip-path="url(#clip0)">
<path d="M24.1334 15.1927C24.1334 8.5481 18.741 3.16162 12.089 3.16162C5.43712 3.16162 0.0446777 8.5481 0.0446777 15.1927V43.5126C0.0446777 50.1571 5.43712 55.5436 12.089 55.5436C18.741 55.5436 24.1334 50.1571 24.1334 43.5126V15.1927Z" fill="url(#paint0_linear)"/>
<path d="M84.7748 15.2913C84.7748 8.64416 79.3802 3.25562 72.7258 3.25562C66.0713 3.25562 60.6768 8.64416 60.6768 15.2913V43.508C60.6768 50.1551 66.0713 55.5436 72.7258 55.5436C79.3802 55.5436 84.7748 50.1551 84.7748 43.508V15.2913Z" fill="url(#paint1_linear)"/>
<path fill-rule="evenodd" clip-rule="evenodd" d="M81.3959 22.0333L51.1693 52.0261C48.8074 54.2797 45.6668 55.5373 42.4006 55.5373C39.1343 55.5373 35.9937 54.2797 33.6318 52.0261L3.41905 21.9761C2.32122 20.8658 1.45399 19.5498 0.86724 18.1035C0.280491 16.6572 -0.0141998 15.1092 0.00013255 13.5487C0.0144649 11.9882 0.337538 10.4457 0.950754 9.01041C1.56397 7.57508 2.45523 6.27521 3.57328 5.1852C5.79735 2.93723 8.82177 1.66007 11.9857 1.63265C15.1496 1.60523 18.1957 2.82982 20.4585 5.0389C33.5053 18.0158 31.701 16.2212 35.2449 19.7673C42.3913 26.9706 49.4514 19.9569 49.4514 19.9569L64.358 5.12803C66.6256 2.92483 69.6722 1.70535 72.8354 1.7342C75.9986 1.76305 79.0225 3.03804 81.2494 5.28223C82.3654 6.36952 83.2549 7.66655 83.8666 9.09879C84.4784 10.531 84.8004 12.0702 84.814 13.6273C84.8276 15.1844 84.5326 16.7289 83.946 18.1716C83.3594 19.6143 82.4927 20.9267 81.3959 22.0333Z" fill="url(#paint2_linear)"/>
<path d="M42.1214 13.2317C45.3179 13.2317 47.9092 10.6543 47.9092 7.47498C47.9092 4.29563 45.3179 1.71826 42.1214 1.71826C38.9249 1.71826 36.3336 4.29563 36.3336 7.47498C36.3336 10.6543 38.9249 13.2317 42.1214 13.2317Z" fill="#FF8C36"/>
</g>
<defs>
<linearGradient id="paint0_linear" x1="12.089" y1="3.16162" x2="12.089" y2="55.5436" gradientUnits="userSpaceOnUse">
<stop stop-color="#B72504"/>
<stop offset="1" stop-color="#FF783B"/>
</linearGradient>
<linearGradient id="paint1_linear" x1="72.7258" y1="3.25562" x2="72.7258" y2="55.5436" gradientUnits="userSpaceOnUse">
<stop stop-color="#B72504"/>
<stop offset="1" stop-color="#FF783B"/>
</linearGradient>
<linearGradient id="paint2_linear" x1="42.407" y1="1.6322" x2="42.407" y2="55.5373" gradientUnits="userSpaceOnUse">
<stop stop-color="#FFC700"/>
<stop offset="1" stop-color="#FF7948"/>
</linearGradient>
<clipPath id="clip0">
<rect width="84.8195" height="53.9163" fill="white" transform="translate(0 1.62732)"/>
</clipPath>
</defs>
</svg>
